<svg xmlns="http://www.w3.org/2000/svg" width="128" height="128" viewBox="0 0 128 128" id="soft-drink"><path d="M62.313 42.423c0-8.294-6.973-15.041-15.544-15.041-8.569 0-15.542 6.747-15.542 15.041 0 8.291 6.973 15.038 15.542 15.038 8.572 0 15.544-6.747 15.544-15.038z"></path><path d="M84.813 37.953l11.959-22.256L93.397 14 80.604 37.81a525.02 525.02 0 0 0-14.669-.195h-.563c.51 1.65.792 3.393.792 5.2 0 10.023-8.427 18.178-18.785 18.178-1.843 0-3.619-.27-5.303-.748.14 1.037.288 2.074.467 3.105 1.22 7.091 4.9 13.713 5.679 20.811.107.966.12 9.215.923 18.993.138 1.725-1.422 2.052-2.682 2.576-1.576.654-2.352 2.45-2.352 4.019 0 2.348 1.576 4.252 3.519 4.252h36.495c1.947 0 3.523-1.904 3.523-4.252 0-2.054-1.206-3.769-2.813-4.164-1.074-.266-2.261-.726-2.146-2.032.839-9.741.849-18.41.958-19.392.777-7.098 4.456-13.72 5.679-20.811 1.36-7.882 1.682-15.893 2.771-23.813 1.597-.171 2.507-.357 2.507-.557 0-.41-3.801-.775-9.791-1.027zM59.957 103.95h-3.848V79.856h3.848v24.094zm7.737 0h-3.848V79.856h3.848v24.094zm7.823 0h-3.848V79.856h3.848v24.094z"></path></svg>